<?xml version="1.0" standalone="no"?>
<!DOCTYPE svg PUBLIC "-//W3C//DTD SVG 20010904//EN"
 "http://www.w3.org/TR/2001/REC-SVG-20010904/DTD/svg10.dtd">
<svg version="1.0" xmlns="http://www.w3.org/2000/svg"
 width="500.000000pt" height="500.000000pt" viewBox="0 0 500.000000 500.000000"
 preserveAspectRatio="xMidYMid meet">
<metadata>
Created by potrace 1.14, written by Peter Selinger 2001-2017
</metadata>
<g transform="translate(0.000000,500.000000) scale(0.100000,-0.100000)"
fill="#000000" stroke="none">
<path d="M1684 4151 c-53 -38 -77 -77 -78 -125 -1 -39 0 -40 48 -54 41 -12 60
-12 103 -2 29 6 53 15 53 20 0 17 -73 42 -115 38 l-44 -3 23 25 c37 39 77 130
58 130 -5 0 -27 -13 -48 -29z"/>
<path d="M3250 4171 c0 -25 33 -88 60 -116 l29 -30 -43 3 c-44 4 -116 -19
-116 -37 0 -5 24 -15 53 -21 52 -12 110 -4 146 19 18 12 7 69 -22 111 -24 35
-107 90 -107 71z"/>
<path d="M1820 4125 c-25 -8 -58 -26 -75 -40 l-30 -26 49 5 c51 6 166 53 166
67 0 13 -59 10 -110 -6z"/>
<path d="M3062 4129 c6 -19 106 -58 165 -65 46 -5 47 -5 28 11 -38 31 -92 54
-145 61 -43 6 -52 4 -48 -7z"/>
<path d="M1422 4011 c-44 -46 -62 -82 -68 -139 -7 -67 3 -77 78 -76 48 1 76 8
118 29 l55 28 -30 13 c-42 18 -83 17 -130 -5 l-40 -18 28 57 c21 42 27 68 25
101 l-3 44 -33 -34z"/>
<path d="M3524 3993 c3 -27 17 -69 30 -95 12 -27 22 -48 21 -48 -2 0 -20 7
-41 16 -40 17 -117 15 -136 -4 -26 -26 129 -80 196 -68 l36 7 0 55 c0 62 -17
103 -63 152 -42 44 -51 41 -43 -15z"/>
<path d="M2381 3989 c-455 -55 -814 -415 -871 -873 -54 -428 177 -840 575
-1027 148 -69 215 -83 415 -83 205 0 274 15 429 90 124 59 199 113 294 213
121 127 203 272 248 441 30 111 33 365 6 474 -110 436 -480 746 -922 769 -55
3 -133 1 -174 -4z m359 -52 c96 -29 133 -45 205 -87 28 -16 65 -37 83 -46 18
-9 37 -25 43 -35 5 -11 15 -19 22 -19 15 0 117 -101 117 -115 0 -6 7 -20 16
-31 8 -10 13 -12 9 -4 -11 25 34 -32 62 -80 17 -27 26 -55 24 -73 -2 -19 1
-27 8 -23 12 8 48 -46 56 -86 4 -17 1 -36 -9 -50 -9 -12 -16 -35 -16 -50 0
-26 -2 -27 -20 -16 -25 16 -40 -1 -40 -47 1 -27 2 -28 14 -12 17 23 33 22 46
-4 19 -35 3 -76 -41 -101 -48 -27 -54 -43 -50 -142 l3 -78 -36 -33 c-33 -30
-36 -37 -36 -89 0 -59 -16 -102 -46 -127 -9 -8 -25 -27 -35 -43 -17 -28 -17
-28 -28 -7 -16 29 -47 26 -82 -8 -20 -21 -29 -39 -29 -62 l0 -33 28 27 c27 26
72 37 72 17 0 -5 -13 -24 -29 -42 -26 -29 -33 -31 -86 -30 -36 1 -69 -5 -89
-15 -36 -19 -258 -28 -536 -21 -61 2 -114 8 -127 16 -17 10 -33 10 -67 1 -36
-9 -49 -8 -74 5 -17 9 -51 16 -75 16 -25 0 -61 7 -80 15 -20 8 -49 15 -65 15
-15 0 -33 5 -40 12 -6 6 -30 14 -53 17 -28 4 -46 13 -53 26 -6 11 -21 34 -33
52 -26 36 -28 43 -10 43 6 0 24 -14 39 -32 l27 -33 -9 34 c-12 44 -49 84 -72
78 -12 -4 -18 1 -18 12 0 9 -13 38 -29 63 -33 52 -49 94 -32 84 6 -4 11 -2 11
3 0 20 19 11 34 -16 19 -35 20 -13 2 31 -16 39 -35 54 -46 36 -4 -7 -10 7 -14
34 -4 26 -14 62 -22 81 -19 46 -2 227 25 261 14 17 21 20 30 11 8 -8 11 -3 11
21 0 34 -8 40 -28 20 -16 -16 -15 -5 2 37 8 19 20 35 25 35 12 0 61 92 61 115
0 10 -5 13 -12 9 -37 -23 86 141 166 222 130 129 291 215 483 258 107 24 333
15 443 -17z m690 -766 c0 -29 -17 -35 -30 -10 -8 15 -9 19 -1 15 6 -4 11 -2
11 3 0 6 5 11 10 11 6 0 10 -9 10 -19z m7 -193 c-3 -7 -5 -2 -5 12 0 14 2 19
5 13 2 -7 2 -19 0 -25z m-87 -88 c-6 -12 -19 -20 -28 -18 -22 4 -29 38 -8 38
18 0 35 29 38 62 1 13 3 4 5 -19 2 -23 -1 -52 -7 -63z m76 44 c-4 -9 -9 -15
-11 -12 -3 3 -3 13 1 22 4 9 9 15 11 12 3 -3 3 -13 -1 -22z m-1879 -151 c-3
-10 -5 -2 -5 17 0 19 2 27 5 18 2 -10 2 -26 0 -35z m1850 0 c-3 -10 -5 -2 -5
17 0 19 2 27 5 18 2 -10 2 -26 0 -35z m-87 -28 c0 -25 -25 -79 -45 -95 -15
-13 -19 -12 -31 5 -12 16 -11 20 9 29 12 6 29 26 37 43 16 35 30 43 30 18z
m69 -29 c-7 -14 -16 -26 -20 -26 -5 0 0 13 9 29 20 36 27 34 11 -3z m-54 -135
c-8 -36 -41 -81 -60 -81 -8 0 -1 13 16 29 16 16 32 44 35 61 4 17 9 29 11 26
3 -2 2 -18 -2 -35z m-116 -72 c-12 -30 -61 -64 -73 -52 -12 13 -5 30 17 42 13
7 32 27 43 44 15 26 19 29 22 14 2 -10 -2 -32 -9 -48z m161 57 c0 -2 -8 -10
-17 -17 -16 -13 -17 -12 -4 4 13 16 21 21 21 13z m-164 -174 c-9 -17 -26 -38
-38 -46 -40 -28 -39 -17 2 24 22 22 40 45 40 52 0 6 3 9 6 6 3 -4 -2 -20 -10
-36z m-1385 -16 c5 3 9 3 9 0 0 -2 3 -11 6 -20 11 -29 -23 -17 -55 19 -40 45
-40 54 0 21 17 -14 35 -24 40 -20z m1449 31 c0 -2 -10 -12 -22 -23 l-23 -19
19 23 c18 21 26 27 26 19z m-160 -28 c0 -27 -52 -79 -79 -79 -32 0 -25 26 14
49 20 11 38 27 41 36 9 22 24 18 24 -6z m-1171 -36 c13 3 21 -1 24 -14 10 -37
-19 -39 -62 -3 -37 31 -41 51 -6 28 14 -9 34 -14 44 -11z m1031 1 c0 -29 -57
-76 -87 -72 -38 4 -45 38 -8 38 16 0 37 11 53 28 28 29 42 31 42 6z m-178 -49
c-14 -29 -56 -49 -89 -40 -35 8 -29 35 7 35 19 0 39 9 53 23 27 29 45 18 29
-18z m-757 25 c9 -14 48 -13 63 2 9 9 12 6 12 -15 0 -15 -6 -30 -14 -33 -18
-7 -72 21 -79 41 -7 17 8 21 18 5z m177 -30 c9 0 23 7 31 15 13 13 16 13 21 0
8 -21 -3 -43 -22 -48 -24 -5 -63 11 -78 31 -20 26 -16 35 8 18 12 -9 30 -16
40 -16z m406 -6 c-5 -29 -51 -50 -85 -38 -15 5 -29 16 -31 25 -2 12 5 14 32
11 24 -3 39 1 53 16 20 21 37 14 31 -14z m-180 -1 c-4 -38 -50 -53 -86 -26
-33 25 -43 50 -14 34 29 -15 59 -14 74 4 20 22 30 18 26 -12z m742 24 c0 -2
-19 -21 -42 -42 l-43 -40 40 43 c36 39 45 47 45 39z m-99 -55 c-12 -22 -79
-67 -87 -59 -3 2 11 15 31 27 19 12 40 31 46 42 6 11 13 17 16 15 2 -3 0 -14
-6 -25z m-130 -54 c-17 -15 -41 -28 -54 -28 -19 1 -17 3 9 14 17 8 40 25 50
39 11 14 21 20 23 14 2 -6 -10 -23 -28 -39z m-888 13 c19 -4 33 -14 35 -24 8
-38 -66 -9 -90 36 -10 20 -10 21 5 8 10 -7 32 -17 50 -20z m777 -3 c0 -28 -41
-58 -79 -58 -35 0 -34 20 3 35 19 8 37 19 41 25 9 14 35 12 35 -2z m-863 -4
c-3 -3 -12 -4 -19 -1 -8 3 -5 6 6 6 11 1 17 -2 13 -5z m219 -11 c14 2 25 -1
29 -10 14 -37 -28 -44 -69 -12 -31 25 -35 45 -5 28 12 -6 32 -9 45 -6z m489
-4 c13 -20 -27 -50 -64 -47 -39 3 -56 28 -19 28 13 0 33 7 44 15 23 17 31 18
39 4z m-337 -10 c22 12 34 -2 24 -26 -6 -19 -62 -16 -84 4 -27 24 -22 33 11
22 21 -7 36 -7 49 0z m182 -9 c0 -42 -78 -51 -99 -12 -9 16 -6 18 19 14 15 -2
36 1 47 7 26 15 33 13 33 -9z m417 -29 c0 -11 -5 -17 -9 -15 -4 3 -19 -3 -32
-12 -14 -9 -31 -14 -38 -12 -7 3 4 13 25 23 20 9 40 21 43 26 9 14 13 10 11
-10z m-837 -34 c13 -5 13 -6 -1 -6 -8 -1 -24 6 -35 15 -19 15 -19 15 1 6 11
-5 27 -12 35 -15z m730 13 c0 -12 -53 -40 -77 -40 -9 0 3 11 27 24 25 13 46
24 48 25 1 0 2 -3 2 -9z m-135 -30 c-12 -19 -57 -32 -69 -20 -7 7 -2 10 16 10
14 0 31 7 38 15 14 17 26 13 15 -5z m-488 -6 c-3 -3 -12 -4 -19 -1 -8 3 -5 6
6 6 11 1 17 -2 13 -5z m113 -4 c0 -5 -12 -10 -27 -9 l-28 1 25 8 c14 4 26 8
28 9 1 1 2 -3 2 -9z m245 -9 c-3 -6 -21 -11 -38 -10 l-32 0 35 13 c38 13 45
13 35 -3z m-125 -1 c0 -5 -15 -10 -32 -9 -31 1 -32 1 -8 9 35 11 40 11 40 0z
m47 -56 c-3 -3 -12 -4 -19 -1 -8 3 -5 6 6 6 11 1 17 -2 13 -5z"/>
<path d="M2901 3846 c10 -10 123 -65 126 -62 5 5 -107 66 -120 66 -6 0 -8 -2
-6 -4z"/>
<path d="M3080 3722 c13 -9 39 -30 57 -46 18 -15 33 -23 33 -18 0 16 -81 82
-99 81 -11 0 -9 -5 9 -17z"/>
<path d="M3032 3698 c2 -6 12 -12 23 -14 10 -1 32 -12 49 -24 27 -19 26 -17
-6 14 -36 35 -74 49 -66 24z"/>
<path d="M3190 3584 c0 -16 37 -84 46 -84 2 0 -2 12 -8 26 -9 20 -9 27 1 33 9
6 9 10 -1 18 -29 22 -38 24 -38 7z"/>
<path d="M3134 3546 c-3 -8 -1 -23 5 -33 10 -17 10 -17 11 0 0 22 18 22 42 0
17 -15 18 -15 13 -1 -6 16 -47 48 -60 48 -3 0 -8 -6 -11 -14z"/>
<path d="M3276 3411 c-4 -6 -4 -22 0 -36 5 -19 9 -23 15 -14 6 11 14 8 33 -11
32 -29 34 -14 4 30 -25 36 -43 47 -52 31z"/>
<path d="M3202 3368 c-14 -14 -15 -47 -2 -68 7 -11 10 -7 10 19 0 30 2 33 25
28 25 -4 25 -4 9 14 -20 22 -26 23 -42 7z"/>
<path d="M1616 3218 c-15 -24 -20 -54 -16 -98 2 -17 5 -12 11 19 5 24 18 54
29 66 24 25 25 35 5 35 -8 0 -21 -10 -29 -22z"/>
<path d="M3206 3168 c-9 -12 -16 -36 -16 -53 l1 -30 20 28 c20 26 22 27 45 12
22 -14 24 -14 24 3 0 18 -19 40 -47 56 -6 3 -19 -4 -27 -16z"/>
<path d="M3077 3132 c-10 -10 -17 -35 -17 -55 0 -43 15 -58 16 -16 2 41 22 62
56 57 27 -4 27 -4 11 14 -21 23 -45 23 -66 0z"/>
<path d="M1546 3064 c-3 -9 -6 -30 -5 -47 0 -31 1 -31 10 -8 9 23 10 24 24 5
13 -17 14 -17 15 -2 0 24 -18 68 -29 68 -5 0 -12 -7 -15 -16z"/>
<path d="M1620 3011 c-13 -25 -13 -92 1 -111 9 -12 10 -10 5 9 -8 38 5 83 26
88 22 6 23 19 2 27 -22 8 -22 8 -34 -13z"/>
<path d="M1736 2958 c-18 -25 -21 -75 -6 -98 7 -11 10 -4 10 26 0 43 14 64 42
64 22 0 24 16 2 24 -25 10 -32 7 -48 -16z"/>
<path d="M3177 2952 c-10 -11 -17 -35 -17 -58 l1 -39 13 31 c17 38 37 47 65
28 24 -17 27 -7 9 31 -13 30 -47 33 -71 7z"/>
<path d="M3025 2915 c-16 -15 -25 -36 -25 -55 0 -34 15 -41 23 -10 7 28 53 47
78 32 16 -10 19 -9 19 6 0 23 -30 52 -54 52 -9 0 -28 -11 -41 -25z"/>
<path d="M2836 2889 c-21 -16 -26 -28 -25 -62 l1 -42 10 30 c20 57 62 84 99
65 12 -7 19 -7 19 -1 0 13 -33 31 -58 31 -11 0 -31 -9 -46 -21z"/>
<path d="M1661 2778 c-12 -33 -4 -46 24 -40 18 3 31 -3 46 -19 l20 -24 -6 30
c-9 44 -33 75 -56 75 -11 0 -23 -9 -28 -22z"/>
<path d="M1789 2736 c-8 -17 -8 -33 -1 -53 l10 -28 1 31 c1 44 23 61 59 45 27
-13 27 -13 8 8 -26 29 -64 27 -77 -3z"/>
<path d="M3106 2729 c-26 -30 -36 -89 -16 -89 6 0 10 6 10 13 0 23 47 60 70
54 23 -6 28 21 8 41 -20 20 -45 14 -72 -19z"/>
<path d="M1956 2714 c-18 -17 -22 -69 -6 -79 6 -3 10 3 10 14 0 36 12 51 39
51 15 0 32 -5 39 -12 9 -9 12 -9 12 -1 0 15 -40 43 -62 43 -9 0 -24 -7 -32
-16z"/>
<path d="M2925 2695 c-17 -16 -25 -35 -25 -57 l1 -33 21 28 c25 35 55 47 86
36 18 -7 22 -5 22 9 0 46 -66 57 -105 17z"/>
<path d="M2132 2694 c-16 -11 -22 -25 -22 -52 l1 -37 14 33 c17 39 38 49 76
35 38 -15 37 2 -1 22 -36 19 -40 19 -68 -1z"/>
<path d="M2725 2675 c-26 -25 -34 -78 -15 -90 6 -4 10 6 10 23 0 48 59 84 102
61 23 -12 23 -12 4 10 -26 29 -71 27 -101 -4z"/>
<path d="M2317 2672 c-19 -20 -23 -77 -7 -87 5 -3 7 0 4 9 -7 19 11 53 37 67
15 7 29 7 51 0 31 -11 31 -11 13 9 -23 25 -76 26 -98 2z"/>
<path d="M2520 2670 c-13 -13 -20 -32 -19 -57 l1 -38 9 32 c12 42 61 70 95 54
29 -13 33 4 5 19 -31 16 -69 12 -91 -10z"/>
<path d="M1757 2593 c-4 -3 -7 -20 -7 -36 0 -24 2 -27 14 -18 18 15 47 2 70
-31 15 -21 16 -22 16 -2 0 46 -69 111 -93 87z"/>
<path d="M1903 2553 c-7 -2 -13 -19 -13 -36 0 -24 3 -28 12 -19 18 18 42 15
72 -9 26 -20 26 -20 26 -1 0 11 -14 32 -31 46 -30 26 -42 29 -66 19z"/>
<path d="M2052 2518 c-15 -15 -16 -58 -2 -58 6 0 10 5 10 10 0 19 63 10 87
-12 33 -31 31 1 -3 41 -27 33 -70 41 -92 19z"/>
<path d="M2819 2501 c-29 -29 -38 -64 -19 -76 6 -3 10 -2 10 4 0 19 60 43 91
36 25 -6 29 -4 29 13 0 55 -65 68 -111 23z"/>
<path d="M2232 2498 c-7 -7 -12 -25 -12 -41 0 -27 1 -28 22 -13 30 21 50 20
82 -5 l26 -20 0 25 c0 14 -9 35 -20 46 -22 22 -79 27 -98 8z"/>
<path d="M2432 2494 c-14 -10 -22 -25 -22 -45 l0 -30 32 17 c29 15 34 15 65 0
34 -16 38 -13 34 24 -3 22 -40 50 -65 50 -12 0 -32 -7 -44 -16z"/>
<path d="M2622 2487 c-12 -13 -22 -33 -22 -45 0 -26 3 -27 35 -6 24 16 49 15
88 -1 13 -6 17 -2 17 17 0 56 -77 78 -118 35z"/>
<path d="M1197 3804 c-48 -73 -57 -159 -25 -229 11 -24 15 -26 52 -19 56 9
117 39 163 79 32 29 36 36 23 45 -23 16 -90 2 -142 -30 l-46 -28 9 31 c11 41
11 158 0 176 -7 10 -15 5 -34 -25z"/>
<path d="M3756 3832 c-14 -23 -16 -121 -3 -169 l14 -51 -36 28 c-42 33 -109
53 -146 44 l-26 -7 33 -34 c37 -38 115 -79 170 -88 34 -6 38 -4 53 25 23 45
21 127 -5 189 -23 53 -44 78 -54 63z"/>
<path d="M1031 3566 c-25 -63 -32 -119 -21 -170 12 -58 53 -126 76 -126 21 0
86 34 122 65 35 29 98 123 88 132 -10 10 -89 -17 -124 -44 -19 -14 -42 -38
-52 -55 l-17 -29 -5 73 c-3 50 -13 91 -30 128 l-25 55 -12 -29z"/>
<path d="M3919 3545 c-15 -33 -24 -76 -27 -127 l-5 -77 -28 39 c-30 41 -81 73
-136 85 -40 8 -42 -3 -11 -48 41 -60 83 -99 141 -128 l57 -29 30 47 c16 25 33
62 36 80 9 47 0 131 -18 173 l-16 35 -23 -50z"/>
<path d="M917 3248 c-11 -83 20 -183 72 -236 59 -59 65 -59 126 -1 55 52 99
126 111 187 8 40 -7 42 -62 6 -47 -31 -81 -77 -98 -136 l-13 -42 -7 44 c-11
72 -89 220 -116 220 -4 0 -10 -19 -13 -42z"/>
<path d="M4033 3267 c-34 -37 -72 -110 -86 -166 l-14 -53 -29 58 c-30 61 -80
108 -126 119 l-27 7 11 -39 c18 -67 59 -135 110 -185 27 -26 53 -48 56 -48 18
0 85 66 109 107 22 37 28 62 31 128 5 90 -4 107 -35 72z"/>
<path d="M1174 2958 c-47 -41 -84 -119 -84 -177 l0 -44 -26 49 c-14 26 -39 65
-56 86 -36 46 -116 113 -125 105 -9 -10 14 -110 37 -160 27 -57 80 -110 136
-136 24 -12 48 -21 53 -21 15 0 80 111 96 163 20 68 30 167 17 167 -6 0 -28
-15 -48 -32z"/>
<path d="M3760 2948 c1 -84 41 -196 94 -263 l22 -27 52 22 c59 25 115 83 143
144 21 47 40 156 28 156 -21 0 -139 -125 -167 -177 -26 -47 -32 -53 -32 -32 0
57 -31 130 -74 174 -23 25 -48 45 -54 45 -7 0 -12 -17 -12 -42z"/>
<path d="M1237 2728 c-51 -68 -69 -167 -43 -238 12 -33 9 -32 -53 30 -41 41
-93 80 -137 103 -40 20 -75 37 -78 37 -12 0 -5 -24 25 -86 54 -109 155 -183
250 -184 40 0 47 3 58 26 18 41 41 144 41 190 0 52 -20 154 -31 154 -4 0 -19
-15 -32 -32z"/>
<path d="M3700 2709 c-16 -67 -8 -199 17 -264 l19 -50 54 0 c68 1 121 25 178
83 41 41 111 167 99 178 -14 14 -147 -66 -209 -125 -38 -35 -68 -60 -68 -55 0
5 5 27 10 49 13 55 -4 132 -41 189 -17 25 -35 46 -39 46 -4 0 -14 -23 -20 -51z"/>
<path d="M1343 2503 c-11 -29 -18 -74 -18 -113 0 -54 6 -75 32 -122 l31 -57
-32 23 c-78 60 -242 122 -301 114 -25 -3 -25 -3 19 -59 80 -101 196 -157 304
-146 30 3 59 10 64 15 17 17 20 136 4 210 -16 79 -59 182 -75 182 -5 0 -18
-21 -28 -47z"/>
<path d="M3585 2500 c-36 -72 -55 -153 -55 -240 0 -107 8 -115 107 -115 104 0
168 31 252 121 34 35 61 69 61 74 0 33 -187 -21 -279 -80 -35 -23 -61 -37 -59
-33 58 118 66 194 30 276 -12 26 -23 47 -26 47 -3 0 -17 -22 -31 -50z"/>
<path d="M3420 2329 c-76 -95 -147 -281 -127 -333 9 -22 79 -51 142 -60 60 -7
150 13 211 49 55 32 125 91 117 99 -4 3 -52 6 -107 6 -93 0 -179 -15 -261 -46
-15 -6 -13 1 12 29 59 68 78 114 78 197 0 41 -5 83 -11 94 -10 17 -15 14 -54
-35z"/>
<path d="M1506 2348 c-11 -42 -6 -124 10 -171 9 -26 35 -68 59 -95 l43 -48
-71 25 c-57 19 -98 25 -199 29 -85 3 -128 1 -128 -6 0 -32 154 -123 236 -141
91 -18 244 23 244 67 0 39 -32 149 -60 207 -28 58 -102 155 -120 155 -4 0 -10
-10 -14 -22z"/>
<path d="M1610 1909 c-89 -25 -140 -42 -140 -50 0 -12 104 -58 160 -70 76 -16
186 -8 240 18 55 27 118 78 108 89 -22 22 -297 32 -368 13z"/>
<path d="M3070 1913 c-14 -2 -36 -6 -49 -9 l-24 -5 27 -28 c101 -106 289 -121
455 -36 43 21 44 23 23 34 -58 31 -176 51 -291 50 -64 -1 -127 -3 -141 -6z"/>
<path d="M1394 1264 c-39 -91 -66 -139 -79 -144 -14 -6 -6 -9 30 -9 30 -1 45
3 37 8 -10 6 -11 13 -1 34 11 24 18 27 60 27 42 0 47 -2 53 -27 5 -17 3 -29
-6 -34 -7 -5 47 -8 122 -8 74 0 129 3 123 6 -15 5 -19 123 -5 123 5 0 19 -23
32 -51 31 -65 52 -79 115 -78 27 1 42 3 33 6 -10 2 -37 30 -61 61 l-43 57 25
21 c34 29 35 89 2 115 -19 16 -40 19 -119 19 -80 0 -93 -2 -79 -13 15 -11 17
-28 15 -132 l-3 -120 -30 0 c-28 0 -32 6 -90 132 -33 72 -63 134 -66 137 -3 3
-32 -55 -65 -130z m374 94 c7 -7 12 -29 12 -50 0 -32 -4 -40 -26 -48 -14 -6
-27 -10 -30 -10 -2 0 -4 27 -4 60 0 51 3 60 18 60 10 0 23 -5 30 -12z m-309
-109 c6 -18 11 -34 11 -35 0 -2 -13 -4 -30 -4 -16 0 -30 2 -30 4 0 14 24 66
30 66 4 0 13 -14 19 -31z"/>
<path d="M2043 1385 c-31 -13 -32 -15 -21 -46 l11 -31 13 31 c9 23 20 31 37
31 56 0 61 -71 7 -94 l-30 -12 34 -12 c77 -28 40 -142 -46 -142 -37 0 -36 -16
1 -23 69 -14 148 33 158 95 4 30 1 41 -19 61 -24 24 -24 24 -5 50 52 69 -45
134 -140 92z"/>
<path d="M2855 1389 c-17 -4 -44 -22 -60 -39 -27 -29 -30 -38 -30 -100 0 -62
3 -72 28 -98 92 -96 285 -44 242 66 -5 13 -10 7 -20 -23 -19 -52 -40 -67 -95
-63 -38 3 -48 8 -68 38 -20 29 -23 44 -20 92 6 77 33 108 95 108 43 0 63 -12
90 -56 10 -17 12 -14 12 23 1 40 -1 43 -36 52 -45 13 -96 13 -138 0z"/>
<path d="M1083 1379 c15 -9 17 -26 17 -129 0 -103 -2 -120 -17 -129 -14 -8 -2
-10 47 -10 36 0 59 3 53 6 -8 3 -13 26 -13 63 l0 59 28 -9 c67 -19 128 47 102
110 -7 17 -21 35 -31 40 -25 14 -210 13 -186 -1z m143 -38 c19 -37 -7 -90 -43
-91 -9 0 -13 19 -13 61 0 57 1 60 22 57 12 -2 28 -14 34 -27z"/>
<path d="M2353 1379 c15 -9 17 -26 17 -129 0 -103 -2 -120 -17 -129 -14 -8 0
-10 52 -10 39 1 62 3 53 6 -15 4 -18 16 -18 63 l0 59 28 -9 c84 -23 148 75 87
135 -22 23 -31 25 -122 25 -71 -1 -93 -3 -80 -11z m139 -26 c24 -21 23 -58 -2
-83 -37 -37 -50 -26 -50 40 0 65 14 77 52 43z"/>
<path d="M2613 1383 c15 -4 17 -19 17 -133 0 -114 -2 -129 -17 -133 -10 -3 14
-5 52 -5 39 0 62 2 53 5 -16 4 -18 19 -18 133 0 114 2 129 18 133 9 3 -14 5
-53 5 -38 0 -62 -2 -52 -5z"/>
<path d="M3083 1379 c15 -9 17 -26 17 -129 0 -103 -2 -120 -17 -129 -14 -8 0
-10 52 -10 39 1 62 3 53 6 -15 4 -18 16 -18 65 l0 61 40 -56 c48 -67 64 -77
122 -77 39 0 41 1 21 13 -13 6 -45 43 -72 81 l-50 69 28 36 c34 42 60 66 81
74 8 3 -6 6 -31 6 -32 1 -46 -3 -46 -12 0 -12 -81 -127 -89 -127 -2 0 -4 29
-4 64 0 53 3 65 18 69 9 3 -14 5 -53 6 -52 0 -66 -2 -52 -10z"/>
<path d="M3383 1379 c14 -8 17 -25 17 -107 0 -110 10 -135 66 -158 47 -20 93
-17 132 6 43 27 52 54 52 165 0 81 2 94 18 98 9 3 -5 5 -33 5 -27 0 -44 -2
-37 -5 8 -3 12 -34 12 -107 0 -123 -11 -146 -69 -146 -61 0 -74 23 -79 137 -4
85 -2 98 14 110 15 11 9 13 -47 13 -48 -1 -60 -3 -46 -11z"/>
<path d="M3713 1379 c15 -9 17 -26 17 -129 0 -103 -2 -120 -17 -129 -14 -8 0
-10 52 -10 39 1 62 3 53 6 -15 4 -18 16 -18 63 l0 59 28 -9 c84 -23 148 75 87
135 -22 23 -31 25 -122 25 -71 -1 -93 -3 -80 -11z m139 -26 c24 -21 23 -58 -2
-83 -37 -37 -50 -26 -50 40 0 65 14 77 52 43z"/>
<path d="M1392 839 c-36 -14 -27 -59 15 -73 41 -14 38 -31 -4 -30 -18 1 -33
-3 -33 -8 0 -14 42 -26 70 -18 19 5 25 13 25 35 0 23 -6 30 -35 40 -40 13 -38
30 3 30 15 0 27 5 27 12 0 7 -4 13 -9 13 -5 0 -15 2 -23 4 -7 3 -23 1 -36 -5z"/>
<path d="M1520 837 c-54 -27 -48 -113 10 -127 91 -23 135 99 48 129 -17 6 -31
11 -32 11 -1 0 -12 -6 -26 -13z m68 -29 c7 -7 12 -21 12 -33 0 -12 -5 -26 -12
-33 -7 -7 -21 -12 -33 -12 -12 0 -26 5 -33 12 -7 7 -12 21 -12 33 0 12 5 26
12 33 7 7 21 12 33 12 12 0 26 -5 33 -12z"/>
<path d="M1690 843 c-50 -19 -68 -84 -31 -117 29 -27 101 -23 101 5 0 6 -14 7
-34 4 -27 -6 -36 -3 -49 15 -29 42 9 82 62 65 31 -9 26 14 -5 25 -14 6 -26 10
-27 9 -1 0 -9 -3 -17 -6z"/>
<path d="M2180 843 c-50 -19 -68 -84 -31 -117 20 -18 69 -24 90 -12 14 9 15
66 1 66 -5 0 -10 -11 -10 -25 0 -20 -5 -25 -24 -25 -29 0 -56 33 -49 61 6 22
42 34 72 24 31 -9 26 14 -5 25 -14 6 -26 10 -27 9 -1 0 -9 -3 -17 -6z"/>
<path d="M2310 837 c-54 -27 -48 -113 10 -127 91 -23 135 99 48 129 -17 6 -31
11 -32 11 -1 0 -12 -6 -26 -13z m68 -29 c7 -7 12 -21 12 -33 0 -12 -5 -26 -12
-33 -7 -7 -21 -12 -33 -12 -12 0 -26 5 -33 12 -7 7 -12 21 -12 33 0 12 5 26
12 33 7 7 21 12 33 12 12 0 26 -5 33 -12z"/>
<path d="M2920 843 c-50 -19 -68 -84 -31 -117 20 -18 69 -24 90 -12 14 9 15
66 1 66 -5 0 -10 -11 -10 -25 0 -20 -5 -25 -24 -25 -29 0 -56 33 -49 61 6 22
42 34 72 24 31 -9 26 14 -5 25 -14 6 -26 10 -27 9 -1 0 -9 -3 -17 -6z"/>
<path d="M3100 837 c-78 -39 -24 -156 58 -126 33 12 27 30 -8 23 -36 -8 -60 9
-60 41 0 32 24 49 60 41 37 -7 40 11 4 24 -30 12 -24 12 -54 -3z"/>
<path d="M1780 775 c0 -51 3 -65 15 -65 12 0 15 14 15 65 0 51 -3 65 -15 65
-12 0 -15 -14 -15 -65z"/>
<path d="M1851 778 c-16 -35 -24 -65 -18 -67 5 -2 14 4 19 13 12 22 67 21 84
-1 7 -10 15 -15 19 -11 11 10 -46 128 -62 128 -8 0 -27 -28 -42 -62z m58 -10
c1 -5 -8 -8 -19 -8 -17 0 -18 3 -8 26 11 23 13 24 19 7 4 -10 8 -21 8 -25z"/>
<path d="M1980 775 l0 -65 45 0 c25 0 45 5 45 10 0 6 -16 10 -35 10 l-35 0 0
55 c0 30 -4 55 -10 55 -6 0 -10 -28 -10 -65z"/>
<path d="M2440 775 l0 -65 51 0 c31 0 48 4 44 10 -3 6 -22 10 -41 10 l-34 0 0
55 c0 30 -4 55 -10 55 -6 0 -10 -28 -10 -65z"/>
<path d="M2550 775 c0 -37 4 -65 10 -65 6 0 10 11 10 25 0 22 4 25 35 25 19 0
35 5 35 10 0 6 -16 10 -35 10 -28 0 -35 4 -35 20 0 17 7 20 40 20 22 0 40 5
40 10 0 6 -22 10 -50 10 l-50 0 0 -65z"/>
<path d="M2670 775 c0 -37 4 -65 10 -65 6 0 10 28 10 65 0 37 -4 65 -10 65 -6
0 -10 -28 -10 -65z"/>
<path d="M2730 775 c0 -37 4 -65 10 -65 6 0 10 19 10 43 l1 42 37 -43 c52 -59
62 -56 62 23 0 51 -3 65 -15 65 -11 0 -15 -11 -15 -42 l0 -43 -36 43 c-20 23
-40 42 -45 42 -5 0 -9 -29 -9 -65z"/>
<path d="M3210 775 l0 -65 45 0 c25 0 45 5 45 10 0 6 -16 10 -35 10 l-35 0 0
55 c0 30 -4 55 -10 55 -6 0 -10 -28 -10 -65z"/>
<path d="M3320 786 c0 -59 14 -78 56 -78 38 0 56 24 62 81 4 42 2 51 -12 51
-13 0 -16 -11 -16 -50 0 -38 -4 -52 -16 -57 -30 -11 -49 11 -52 61 -4 64 -22
58 -22 -8z"/>
<path d="M3470 775 l0 -65 50 0 c53 0 78 21 60 51 -5 7 -7 22 -4 32 9 29 -14
47 -62 47 l-44 0 0 -65z m80 30 c0 -10 -10 -15 -30 -15 -20 0 -30 5 -30 15 0
10 10 15 30 15 20 0 30 -5 30 -15z m8 -57 c-7 -20 -68 -23 -68 -4 0 12 10 16
36 16 24 0 34 -4 32 -12z"/>
</g>
</svg>
